<svg xmlns="http://www.w3.org/2000/svg" xmlns:xlink="http://www.w3.org/1999/xlink" xmlns:lucid="lucid" width="2039.17" height="1575.72"><g transform="translate(0 0)" lucid:page-tab-id="0_0"><path d="M90.1 540.06v-330.3h40v330.3zM90.1 540.06h40v410h-40zM130.1 1259.56h-40v-309.5h40z" stroke="#666" fill="#3fb8b9"/><path d="M130.1 209.75h1813v330.3h-1813zM130.1 540.06h1813v410h-1813zM1943.1 950.07v309.5h-1813v-309.5z" stroke="#666" fill="none"/><use xlink:href="#a" transform="matrix(-1.8369701987210297e-16,-1,1,-1.8369701987210297e-16,90.08599156036053,540.0579186544028) translate(127.05108709559946 23.60458558478755)"/><use xlink:href="#b" transform="matrix(-1.8369701987210297e-16,-1,1,-1.8369701987210297e-16,90.08599156036053,950.0657719904332) translate(154.53516492619823 23.60458558478755)"/><use xlink:href="#c" transform="matrix(-1.8369701987210297e-16,-1,1,-1.8369701987210297e-16,90.08599156036053,1259.5606108079637) translate(78.62784292231375 23.60458558478755)"/><path d="M786.36 100.7a8 8 0 0 1 8-8h647.2a8 8 0 0 1 8 8v24a8 8 0 0 1-8 8h-647.2a8 8 0 0 1-8-8z" stroke="#000" stroke-opacity="0" stroke-width="2" fill="#fff" fill-opacity="0"/><use xlink:href="#d" transform="matrix(1,0,0,1,791.3609044391084,97.68934360882275) translate(54.40740740740739 23.208333333333336)"/><use xlink:href="#e" transform="matrix(1,0,0,1,791.3609044391084,97.68934360882275) translate(139.7407407407407 23.208333333333336)"/><use xlink:href="#f" transform="matrix(1,0,0,1,791.3609044391084,97.68934360882275) translate(178.18518518518516 23.208333333333336)"/><use xlink:href="#g" transform="matrix(1,0,0,1,791.3609044391084,97.68934360882275) translate(312.7037037037037 23.208333333333336)"/><use xlink:href="#h" transform="matrix(1,0,0,1,791.3609044391084,97.68934360882275) translate(441.44444444444446 23.208333333333336)"/><use xlink:href="#i" transform="matrix(1,0,0,1,791.3609044391084,97.68934360882275) translate(479.8888888888889 23.208333333333336)"/><path d="M795.4 131.38h645.1M795.43 131.38h-4.02M1440.5 131.38h4" stroke="#b2b2b2" stroke-width="2" fill="none"/><path d="M307.58 1042.76c22.1 0 40 17.9 40 40s-17.9 40-40 40H202.2c-22.08 0-40-17.9-40-40s17.92-40 40-40z" stroke="#000" stroke-opacity="0" stroke-width="2" fill="#019280"/><use xlink:href="#j" transform="matrix(1,0,0,1,167.2063513154398,1047.755115599256) translate(45.52096015705226 26.876342339150206)"/><use xlink:href="#k" transform="matrix(1,0,0,1,167.2063513154398,1047.755115599256) translate(116.51127070189598 26.876342339150206)"/><use xlink:href="#l" transform="matrix(1,0,0,1,167.2063513154398,1047.755115599256) translate(57.01057670856257 48.50385584787552)"/><path d="M348.08 1082.76h63.12" stroke="#666" fill="none"/><path d="M348.1 1083.23h-.55l.03-.47v-.48h.52z" stroke="#666" stroke-width=".05" fill="#666"/><path d="M425.97 1082.76l-14.27 4.63v-9.28z" stroke="#666" fill="#666"/><path d="M572.96 1042.76c22.1 0 40 17.9 40 40s-17.9 40-40 40H467.58c-22.1 0-40-17.9-40-40s17.9-40 40-40z" stroke="#000" stroke-opacity="0" stroke-width="2" fill="#019280"/><use xlink:href="#m" transform="matrix(1,0,0,1,432.58503853308537,1047.755115599256) translate(35.533254265870085 37.813842339150206)"/><use xlink:href="#n" transform="matrix(1,0,0,1,432.58503853308537,1047.755115599256) translate(88.45057319809844 37.813842339150206)"/><path d="M692.96 1158.12v-138.04M692.96 1158.1v.52M692.96 1020.1v-.52M612.4 1091.75h37a3.03 3.03 0 0 1 3.03 3.03 3.03 3.03 0 0 0 3.03 3.03h30.63" stroke="#000" fill="none"/><path d="M612.4 1092.22h-.6l.2-.95h.4z" stroke="#000" stroke-width=".05"/><path d="M691.98 1097.8l-12.9 7.64v-15.27z" stroke="#000"/><path d="M693.46 1104.64h756.57a12 12 0 0 1 12 12v23.63a12 12 0 0 0 12 12h2.13M693.48 1104.64h-.52" stroke="#000" fill="none"/><path d="M1482.05 1152.27l-12.9 7.64v-15.26z" stroke="#000"/><path d="M693.46 1130.58h486.8a12 12 0 0 1 12 12v44.04a12 12 0 0 0 12 12h480.45M693.48 1130.58h-.52" stroke="#000" fill="none"/><path d="M1690.6 1198.62l-12.9 7.63v-15.27z" stroke="#000"/><path d="M1628.4 1112.27c22.1 0 40 17.9 40 40s-17.9 40-40 40h-105.37c-22.1 0-40-17.9-40-40s17.9-40 40-40z" stroke="#000" stroke-opacity="0" stroke-width="2" fill="#019280"/><use xlink:href="#o" transform="matrix(1,0,0,1,1488.029497741164,1117.272123305873) translate(33.55573856310468 37.813842339150206)"/><use xlink:href="#p" transform="matrix(1,0,0,1,1488.029497741164,1117.272123305873) translate(83.46923617467675 37.813842339150206)"/><path d="M1836.96 1158.62c22.1 0 40 17.9 40 40s-17.9 40-40 40h-105.38c-22.1 0-40-17.9-40-40s17.9-40 40-40z" stroke="#000" stroke-opacity="0" stroke-width="2" fill="#019280"/><use xlink:href="#q" transform="matrix(1,0,0,1,1696.5805208610152,1163.6167951102843) translate(18.53663195982322 37.813842339150206)"/><use xlink:href="#r" transform="matrix(1,0,0,1,1696.5805208610152,1163.6167951102843) translate(84.52057363690648 37.813842339150206)"/><path d="M307.58 705.06c22.1 0 40 17.9 40 40s-17.9 40-40 40H202.2c-22.08 0-40-17.9-40-40s17.92-40 40-40z" stroke="#000" stroke-opacity="0" stroke-width="2" fill="#019280"/><use xlink:href="#j" transform="matrix(1,0,0,1,167.2063513154398,710.061845322418) translate(45.52096015705226 26.876342339150206)"/><use xlink:href="#k" transform="matrix(1,0,0,1,167.2063513154398,710.061845322418) translate(116.51127070189598 26.876342339150206)"/><use xlink:href="#l" transform="matrix(1,0,0,1,167.2063513154398,710.061845322418) translate(57.01057670856257 48.50385584787552)"/><path d="M348.08 745.06h63.12" stroke="#666" fill="none"/><path d="M348.1 745.54h-.55l.03-.48v-.47h.52z" stroke="#666" stroke-width=".05" fill="#666"/><path d="M425.97 745.06l-14.27 4.64v-9.27z" stroke="#666" fill="#666"/><path d="M572.96 705.06c22.1 0 40 17.9 40 40s-17.9 40-40 40H467.58c-22.1 0-40-17.9-40-40s17.9-40 40-40z" stroke="#000" stroke-opacity="0" stroke-width="2" fill="#019280"/><use xlink:href="#s" transform="matrix(1,0,0,1,432.58503853308525,710.061845322418) translate(35.533254265870085 37.813842339150206)"/><use xlink:href="#t" transform="matrix(1,0,0,1,432.58503853308525,710.061845322418) translate(88.45057319809844 37.813842339150206)"/><path d="M692.96 810.53V672.5M692.96 810.52v.5M692.96 672.5v-.5M612.4 754.05h38.12a1.92 1.92 0 0 0 1.9-1.9 1.92 1.92 0 0 1 1.93-1.93h31.74" stroke="#000" fill="none"/><path d="M612.4 754.53h-.6l.2-.95h.4z" stroke="#000" stroke-width=".05"/><path d="M691.98 750.22l-12.9 7.64V742.6z" stroke="#000"/><path d="M693.46 783h267.78a12 12 0 0 1 12 12v28.5M693.48 783h-.52" stroke="#000" fill="none"/><path d="M973.24 829.38l-7.64-12.9h15.27z" stroke="#000"/><path d="M1628.4 579.3c22.1 0 40 17.92 40 40 0 22.1-17.9 40-40 40h-105.37c-22.1 0-40-17.9-40-40 0-22.08 17.9-40 40-40z" stroke="#000" stroke-opacity="0" stroke-width="2" fill="#019280"/><use xlink:href="#u" transform="matrix(1,0,0,1,1488.029497741164,584.3083975551422) translate(23.01733209646886 37.813842339150206)"/><use xlink:href="#v" transform="matrix(1,0,0,1,1488.029497741164,584.3083975551422) translate(96.01019018841679 37.813842339150206)"/><path d="M305.38 344.03c22.1 0 40 17.9 40 40s-17.9 40-40 40H200c-22.1 0-40-17.9-40-40s17.9-40 40-40z" stroke="#000" stroke-opacity="0" stroke-width="2" fill="#019280"/><use xlink:href="#j" transform="matrix(1,0,0,1,165.0000002176448,349.0302441122317) translate(45.52096015705226 26.876342339150206)"/><use xlink:href="#k" transform="matrix(1,0,0,1,165.0000002176448,349.0302441122317) translate(116.51127070189598 26.876342339150206)"/><use xlink:href="#l" transform="matrix(1,0,0,1,165.0000002176448,349.0302441122317) translate(57.01057670856257 48.50385584787552)"/><path d="M345.88 384.03h31.67" stroke="#666" fill="none"/><path d="M345.9 384.5h-.55l.03-.47-.02-.47h.53z" stroke="#666" stroke-width=".05" fill="#666"/><path d="M392.3 384.03l-14.25 4.64v-9.28z" stroke="#666" fill="#666"/><path d="M632 387.57c22.1 0 40 17.9 40 40s-17.9 40-40 40H526.62c-22.1 0-40-17.9-40-40s17.9-40 40-40z" stroke="#000" stroke-opacity="0" stroke-width="2" fill="#019280"/><use xlink:href="#m" transform="matrix(1,0,0,1,491.61905394631947,392.56851268326295) translate(35.533254265870085 37.813842339150206)"/><use xlink:href="#n" transform="matrix(1,0,0,1,491.61905394631947,392.56851268326295) translate(88.45057319809844 37.813842339150206)"/><path d="M750.86 474.15v-86.08M750.86 474.13v.52M750.86 388.08v-.5M671.43 436.56h72.55" stroke="#000" fill="none"/><path d="M671.45 437.04h-.6l.17-.96h.43z" stroke="#000" stroke-width=".05"/><path d="M749.87 436.56l-12.9 7.64v-15.28z" stroke="#000"/><path d="M751.36 445.45h220.28M751.37 445.45h-.5" stroke="#000" fill="none"/><path d="M977.53 445.45l-12.9 7.64V437.8z" stroke="#000"/><path d="M1123.9 295.85c22.08 0 40 17.9 40 40s-17.92 40-40 40h-105.4c-22.08 0-40-17.9-40-40s17.92-40 40-40z" stroke="#000" stroke-opacity="0" stroke-width="2" fill="#019280"/><use xlink:href="#w" transform="matrix(1,0,0,1,983.5099775430645,300.84822587512576) translate(19.06230069093807 37.813842339150206)"/><use xlink:href="#x" transform="matrix(1,0,0,1,983.5099775430645,300.84822587512576) translate(96.96140027329128 37.813842339150206)"/><path d="M1123.9 405.45c22.08 0 40 17.9 40 40s-17.92 40-40 40h-105.4c-22.08 0-40-17.9-40-40s17.92-40 40-40z" stroke="#000" stroke-opacity="0" stroke-width="2" fill="#019280"/><use xlink:href="#y" transform="matrix(1,0,0,1,983.5099775430645,410.4527631686976) translate(37.51076996863547 37.813842339150206)"/><use xlink:href="#z" transform="matrix(1,0,0,1,983.5099775430645,410.4527631686976) translate(69.50146703362499 37.813842339150206)"/><path d="M1744.27 764.7c22.1 0 40 17.9 40 40 0 22.08-17.9 40-40 40H1638.9c-22.1 0-40-17.92-40-40 0-22.1 17.9-40 40-40z" stroke="#000" stroke-opacity="0" stroke-width="2" fill="#019280"/><use xlink:href="#A" transform="matrix(1,0,0,1,1603.8911772521924,769.6870847727877) translate(34.05637544988073 37.813842339150206)"/><use xlink:href="#t" transform="matrix(1,0,0,1,1603.8911772521924,769.6870847727877) translate(89.92745201408778 37.813842339150206)"/><path d="M1419.86 684.7c22.1 0 40 17.9 40 40 0 22.08-17.9 40-40 40h-105.38c-22.1 0-40-17.92-40-40 0-22.1 17.9-40 40-40z" stroke="#000" stroke-opacity="0" stroke-width="2" fill="#019280"/><use xlink:href="#B" transform="matrix(1,0,0,1,1279.478474621313,689.6870847727877) translate(24.01860587002096 37.813842339150206)"/><use xlink:href="#C" transform="matrix(1,0,0,1,1279.478474621313,689.6870847727877) translate(95.00891641486469 37.813842339150206)"/><path d="M1234.48 750.36c22.1 0 40 17.9 40 40s-17.9 40-40 40H1129.1c-22.1 0-40-17.9-40-40s17.9-40 40-40z" stroke="#000" stroke-opacity="0" stroke-width="2" fill="#019280"/><use xlink:href="#D" transform="matrix(1,0,0,1,1094.0997874036673,755.3616664869477) translate(27.998669119890547 37.813842339150206)"/><use xlink:href="#E" transform="matrix(1,0,0,1,1094.0997874036673,755.3616664869477) translate(79.96477796724442 37.813842339150206)"/><path d="M1025.93 830.36c22.1 0 40 17.9 40 40s-17.9 40-40 40H920.55c-22.1 0-40-17.9-40-40s17.9-40 40-40z" stroke="#000" stroke-opacity="0" stroke-width="2" fill="#019280"/><use xlink:href="#F" transform="matrix(1,0,0,1,885.5487642838161,835.3616664869477) translate(49.22567311919501 26.876342339150206)"/><use xlink:href="#E" transform="matrix(1,0,0,1,885.5487642838161,835.3616664869477) translate(53.98172354356748 48.50385584787552)"/><path d="M693.46 756.53h362.64a12 12 0 0 1 12 12v9.83a12 12 0 0 0 12 12h2.13M693.48 756.53h-.52" stroke="#000" fill="none"/><path d="M1088.12 790.36l-12.9 7.64v-15.27z" stroke="#000"/><path d="M693.46 729.47h574.5M693.48 729.47h-.52" stroke="#000" fill="none"/><path d="M1273.85 729.47l-12.9 7.63v-15.27z" stroke="#000"/><path d="M693.46 707.23H1076a12 12 0 0 0 12-12V631.3a12 12 0 0 1 12-12h376.16M693.48 707.23h-.52" stroke="#000" fill="none"/><path d="M1482.05 619.3l-12.9 7.64v-15.27z" stroke="#000"/><path d="M693.46 683.6h314.12a12 12 0 0 0 12-12V568.14a12 12 0 0 1 12-12h648a12 12 0 0 1 12 12V757.8M693.48 683.6h-.52" stroke="#000" fill="none"/><path d="M1691.58 763.7l-7.63-12.9h15.27z" stroke="#000"/><path d="M693.46 1034.77h267.78a12 12 0 0 0 12-12V917.24M693.48 1034.77h-.52" stroke="#000" fill="none"/><path d="M973.24 911.34l7.63 12.9H965.6z" stroke="#000"/><path d="M693.46 1051.03h476.33a12 12 0 0 0 12-12v-201.8M693.48 1051.03h-.52" stroke="#000" fill="none"/><path d="M1181.8 831.34l7.63 12.9h-15.28z" stroke="#000"/><path d="M693.46 1070.78h870.26a12 12 0 0 0 12-12v-392.6M693.48 1070.78h-.52" stroke="#000" fill="none"/><path d="M1575.72 660.3l7.63 12.9h-15.27z" stroke="#000"/><path d="M693.46 1062.65h661.7a12 12 0 0 0 12-12v-279.1M693.48 1062.65h-.52" stroke="#000" fill="none"/><path d="M1367.17 765.67l7.63 12.9h-15.27z" stroke="#000"/><path d="M693.46 1087.04h986.12a12 12 0 0 0 12-12V851.56M693.48 1087.04h-.52" stroke="#000" fill="none"/><path d="M1691.58 845.67l7.64 12.9h-15.28z" stroke="#000"/><path d="M393.93 456.6V318.54M393.93 456.57v.52M393.93 318.56v-.5M394.43 420.2h86.07M394.44 420.2h-.5" stroke="#000" fill="none"/><path d="M486.4 420.2l-12.92 7.63v-15.27z" stroke="#000"/><path d="M632 264.03c22.1 0 40 17.9 40 40s-17.9 40-40 40H526.62c-22.1 0-40-17.9-40-40s17.9-40 40-40z" stroke="#000" stroke-opacity="0" stroke-width="2" fill="#019280"/><use xlink:href="#G" transform="matrix(1,0,0,1,491.6190539463196,269.0302441122317) translate(33.55573856310468 37.813842339150206)"/><use xlink:href="#H" transform="matrix(1,0,0,1,491.6190539463196,269.0302441122317) translate(83.46923617467675 37.813842339150206)"/><path d="M394.43 334.5h34.22a12 12 0 0 0 12-12v-13.84a12 12 0 0 1 12-12h27.85M394.44 334.5h-.5" stroke="#000" fill="none"/><path d="M486.4 296.66l-12.92 7.63v-15.28z" stroke="#000"/><path d="M579.3 344.53v36.17" stroke="#000" fill="none"/><path d="M579.78 344.54h-.95v-.5h.95z" stroke="#000" stroke-width=".05"/><path d="M579.3 386.6l-7.63-12.93h15.27z" stroke="#000"/><path d="M1309.27 231.72c22.1 0 40 17.9 40 40s-17.9 40-40 40H1203.9c-22.1 0-40-17.9-40-40s17.9-40 40-40z" stroke="#000" stroke-opacity="0" stroke-width="2" fill="#019280"/><use xlink:href="#I" transform="matrix(1,0,0,1,1168.88866476071,236.72335902205688) translate(49.526055251260644 26.876342339150206)"/><use xlink:href="#J" transform="matrix(1,0,0,1,1168.88866476071,236.72335902205688) translate(33.55573856310468 48.50385584787552)"/><path d="M873.77 249.1c22.1 0 40 17.9 40 40s-17.9 40-40 40H768.4c-22.1 0-40-17.9-40-40s17.9-40 40-40z" stroke="#000" stroke-opacity="0" stroke-width="2" fill="#019280"/><use xlink:href="#K" transform="matrix(1,0,0,1,733.390925634453,254.098739487072) translate(25.094975176589454 37.813842339150206)"/><use xlink:href="#L" transform="matrix(1,0,0,1,733.390925634453,254.098739487072) translate(97.98770589118217 37.813842339150206)"/><path d="M751.36 411.94h175.12a12 12 0 0 0 12-12V283.72a12 12 0 0 1 12-12h206.54M751.37 411.94h-.5" stroke="#000" fill="none"/><path d="M1162.9 271.72l-12.9 7.64V264.1z" stroke="#000"/><path d="M751.36 399.88h82.4a12 12 0 0 0 12-12v-11.4a12 12 0 0 0-12-12h-.68a12 12 0 0 1-12-12V336M751.37 399.88h-.5" stroke="#000" fill="none"/><path d="M821.08 330.08l7.64 12.9h-15.27z" stroke="#000"/><path d="M751.36 454.83h8.5a12 12 0 0 1 12 12v28.5a12 12 0 0 0 12 12h923.9a12 12 0 0 1 12 12V757.8M751.37 454.83h-.5" stroke="#000" fill="none"/><path d="M1719.76 763.7l-7.63-12.9h15.27z" stroke="#000"/><path d="M1594.94 347.58c22.1 0 40 17.9 40 40s-17.9 40-40 40h-105.38c-22.1 0-40-17.9-40-40s17.9-40 40-40z" stroke="#000" stroke-opacity="0" stroke-width="2" fill="#019280"/><use xlink:href="#M" transform="matrix(1,0,0,1,1454.5623373406947,352.5850385330853) translate(48.574845166386154 37.813842339150206)"/><path d="M1164.4 335.85h130.33a12 12 0 0 1 12 12v27.73a12 12 0 0 0 12 12h123.96" stroke="#000" fill="none"/><path d="M1164.4 336.32h-.54l.03-.47-.03-.48h.53z" stroke="#000" stroke-width=".05"/><path d="M1448.58 387.58l-12.9 7.64v-15.27z" stroke="#000"/><path d="M1349.77 271.72h80.04" stroke="#000" fill="none"/><path d="M1349.78 272.2h-.54l.03-.48-.02-.47h.53z" stroke="#000" stroke-width=".05"/><path d="M1435.7 271.72l-12.9 7.64V264.1z" stroke="#000"/><path d="M1582.06 231.72c22.1 0 40 17.9 40 40s-17.9 40-40 40h-105.38c-22.1 0-40-17.9-40-40s17.9-40 40-40z" stroke="#000" stroke-opacity="0" stroke-width="2" fill="#019280"/><g><use xlink:href="#N" transform="matrix(1,0,0,1,1441.6848259367528,236.7233590220569) translate(37.986375011072724 37.813842339150206)"/><use xlink:href="#E" transform="matrix(1,0,0,1,1441.6848259367528,236.7233590220569) translate(69.97707207606224 37.813842339150206)"/></g><path d="M1860.13 231.72c22.1 0 40 17.9 40 40s-17.9 40-40 40h-105.38c-22.1 0-40-17.9-40-40s17.9-40 40-40z" stroke="#000" stroke-opacity="0" stroke-width="2" fill="#019280"/><g><use xlink:href="#O" transform="matrix(1,0,0,1,1719.752856763221,236.72335902205688) translate(22.51669520969281 37.813842339150206)"/><use xlink:href="#P" transform="matrix(1,0,0,1,1719.752856763221,236.72335902205688) translate(93.50700575453654 37.813842339150206)"/></g><path d="M1622.56 271.72h85.32" stroke="#000" fill="none"/><path d="M1622.58 272.2h-.55l.03-.48v-.47h.52z" stroke="#000" stroke-width=".05"/><path d="M1713.77 271.72l-12.9 7.64V264.1z" stroke="#000"/><path d="M1860.13 347.58c22.1 0 40 17.9 40 40s-17.9 40-40 40h-105.38c-22.1 0-40-17.9-40-40s17.9-40 40-40z" stroke="#000" stroke-opacity="0" stroke-width="2" fill="#019280"/><g><use xlink:href="#Q" transform="matrix(1,0,0,1,1719.752856763221,352.5850385330853) translate(31.503127327322883 37.813842339150206)"/><use xlink:href="#P" transform="matrix(1,0,0,1,1719.752856763221,352.5850385330853) translate(84.52057363690646 37.813842339150206)"/></g><path d="M1807.44 312.22v28.5" stroke="#000" fill="none"/><path d="M1807.92 312.24h-.95v-.52h.95z" stroke="#000" stroke-width=".05"/><path d="M1807.44 346.6l-7.63-12.9h15.28z" stroke="#000"/><path d="M1807.44 428.08v27.5a12 12 0 0 1-12 12h-108.6a12 12 0 0 1-12-12v-56a12 12 0 0 0-12-12h-21.03" stroke="#000" fill="none"/><path d="M1807.92 428.1h-.95v-.52h.95z" stroke="#000" stroke-width=".05"/><path d="M1635.92 387.58l12.9-7.63v15.27z" stroke="#000"/><path d="M1164.4 445.45h8.5a12 12 0 0 1 12 12v5.2a12 12 0 0 0 12 12h333.35a12 12 0 0 0 12-12v-28.2" stroke="#000" fill="none"/><path d="M1164.4 445.93h-.54l.03-.48-.03-.47h.53z" stroke="#000" stroke-width=".05"/><path d="M1542.25 428.57l7.64 12.9h-15.28z" stroke="#000"/><path d="M1071.2 404.95v-22.23" stroke="#000" fill="none"/><path d="M1071.67 405.45h-.95v-.5h.95z" stroke="#000" stroke-width=".05"/><path d="M1071.2 376.83l7.63 12.9h-15.27z" stroke="#000"/><defs><path fill="#fff" d="M67-125c0 53 21 87 73 88 37 1 54-22 65-47l45 17C233-25 199 4 140 4 58 4 20-42 15-125 8-235 124-281 211-232c18 10 29 29 36 50l-46 12c-8-25-30-41-62-41-52 0-71 34-72 86" id="R"/><path fill="#fff" d="M24 0v-248h52v208h133V0H24" id="S"/><path fill="#fff" d="M24 0v-248h52V0H24" id="T"/><path fill="#fff" d="M24 0v-248h195v40H76v63h132v40H76v65h150V0H24" id="U"/><path fill="#fff" d="M175 0L67-191c6 58 2 128 3 191H24v-248h59L193-55c-6-58-2-129-3-193h46V0h-61" id="V"/><path fill="#fff" d="M136-208V0H84v-208H4v-40h212v40h-80" id="W"/><g id="a"><use transform="matrix(0.050063688677604884,0,0,0.050063688677604884,0,0)" xlink:href="#R"/><use transform="matrix(0.050063688677604884,0,0,0.050063688677604884,12.966495367499665,0)" xlink:href="#S"/><use transform="matrix(0.050063688677604884,0,0,0.050063688677604884,23.930443187895136,0)" xlink:href="#T"/><use transform="matrix(0.050063688677604884,0,0,0.050063688677604884,28.936812055655622,0)" xlink:href="#U"/><use transform="matrix(0.050063688677604884,0,0,0.050063688677604884,40.952097338280794,0)" xlink:href="#V"/><use transform="matrix(0.050063688677604884,0,0,0.050063688677604884,53.91859270578046,0)" xlink:href="#W"/><use transform="matrix(0.050063688677604884,0,0,0.050063688677604884,64.88254052617593,0)" xlink:href="#U"/></g><path fill="#fff" d="M230 0l2-204L168 0h-37L68-204 70 0H24v-248h70l56 185 57-185h69V0h-46" id="X"/><path fill="#fff" d="M24-248c93 1 206-16 204 79-1 75-69 88-152 82V0H24v-248zm52 121c47 0 100 7 100-41 0-47-54-39-100-39v80" id="Y"/><path fill="#fff" d="M199 0l-22-63H83L61 0H9l90-248h61L250 0h-51zm-33-102l-36-108c-10 38-24 72-36 108h72" id="Z"/><path fill="#fff" d="M24-248c120-7 223 5 221 122C244-46 201 0 124 0H24v-248zM76-40c74 7 117-18 117-86 0-67-45-88-117-82v168" id="aa"/><path fill="#fff" d="M140-251c80 0 125 45 125 126S219 4 139 4C58 4 15-44 15-125s44-126 125-126zm-1 214c52 0 73-35 73-88 0-50-21-86-72-86-52 0-73 35-73 86s22 88 72 88" id="ab"/><g id="b"><use transform="matrix(0.050063688677604884,0,0,0.050063688677604884,0,0)" xlink:href="#U"/><use transform="matrix(0.050063688677604884,0,0,0.050063688677604884,12.015285282625172,0)" xlink:href="#X"/><use transform="matrix(0.050063688677604884,0,0,0.050063688677604884,26.984328197229033,0)" xlink:href="#Y"/><use transform="matrix(0.050063688677604884,0,0,0.050063688677604884,38.999613479854204,0)" xlink:href="#S"/><use transform="matrix(0.050063688677604884,0,0,0.050063688677604884,49.96356130024967,0)" xlink:href="#U"/><use transform="matrix(0.050063688677604884,0,0,0.050063688677604884,61.978846582874844,0)" xlink:href="#Z"/><use transform="matrix(0.050063688677604884,0,0,0.050063688677604884,74.94534195037451,0)" xlink:href="#aa"/><use transform="matrix(0.050063688677604884,0,0,0.050063688677604884,87.91183731787417,0)" xlink:href="#ab"/></g><path fill="#fff" d="M169-182c-1-43-94-46-97-3 18 66 151 10 154 114 3 95-165 93-204 36-6-8-10-19-12-30l50-8c3 46 112 56 116 5-17-69-150-10-154-114-4-87 153-88 188-35 5 8 8 18 10 28" id="ac"/><path fill="#fff" d="M240-174c0 40-23 61-54 70L253 0h-59l-57-94H76V0H24v-248c93 4 217-23 216 74zM76-134c48-2 112 12 112-38 0-48-66-32-112-35v73" id="ad"/><g id="c"><use transform="matrix(0.050063688677604884,0,0,0.050063688677604884,0,0)" xlink:href="#Z"/><use transform="matrix(0.050063688677604884,0,0,0.050063688677604884,12.966495367499665,0)" xlink:href="#aa"/><use transform="matrix(0.050063688677604884,0,0,0.050063688677604884,25.93299073499933,0)" xlink:href="#X"/><use transform="matrix(0.050063688677604884,0,0,0.050063688677604884,40.90203364960319,0)" xlink:href="#T"/><use transform="matrix(0.050063688677604884,0,0,0.050063688677604884,45.908402517363676,0)" xlink:href="#V"/><use transform="matrix(0.050063688677604884,0,0,0.050063688677604884,58.874897884863344,0)" xlink:href="#T"/><use transform="matrix(0.050063688677604884,0,0,0.050063688677604884,63.88126675262383,0)" xlink:href="#ac"/><use transform="matrix(0.050063688677604884,0,0,0.050063688677604884,75.896552035249,0)" xlink:href="#W"/><use transform="matrix(0.050063688677604884,0,0,0.050063688677604884,86.86049985564448,0)" xlink:href="#ad"/><use transform="matrix(0.050063688677604884,0,0,0.050063688677604884,99.82699522314414,0)" xlink:href="#Z"/><use transform="matrix(0.050063688677604884,0,0,0.050063688677604884,112.7934905906438,0)" xlink:href="#aa"/><use transform="matrix(0.050063688677604884,0,0,0.050063688677604884,125.75998595814347,0)" xlink:href="#ab"/><use transform="matrix(0.050063688677604884,0,0,0.050063688677604884,139.77781878787283,0)" xlink:href="#ad"/></g><path fill="#b2b2b2" d="M147 0H94L2-248h55l64 206c17-72 42-137 63-206h54" id="ae"/><path fill="#b2b2b2" d="M25-224v-37h50v37H25zM25 0v-190h50V0H25" id="af"/><path fill="#b2b2b2" d="M137-138c1-29-70-34-71-4 15 46 118 7 119 86 1 83-164 76-172 9l43-7c4 19 20 25 44 25 33 8 57-30 24-41C81-84 22-81 20-136c-2-80 154-74 161-7" id="ag"/><path fill="#b2b2b2" d="M115-3C79 11 28 4 28-45v-112H4v-33h27l15-45h31v45h36v33H77v99c-1 23 16 31 38 25v30" id="ah"/><path fill="#b2b2b2" d="M133-34C117-15 103 5 69 4 32 3 11-16 11-54c-1-60 55-63 116-61 1-26-3-47-28-47-18 1-26 9-28 27l-52-2c7-38 36-58 82-57s74 22 75 68l1 82c-1 14 12 18 25 15v27c-30 8-71 5-69-32zm-48 3c29 0 43-24 42-57-32 0-66-3-65 30 0 17 8 27 23 27" id="ai"/><g id="d"><use transform="matrix(0.07407407407407408,0,0,0.07407407407407408,0,0)" xlink:href="#ae"/><use transform="matrix(0.07407407407407408,0,0,0.07407407407407408,17.25925925925926,0)" xlink:href="#af"/><use transform="matrix(0.07407407407407408,0,0,0.07407407407407408,24.66666666666667,0)" xlink:href="#ag"/><use transform="matrix(0.07407407407407408,0,0,0.07407407407407408,39.48148148148148,0)" xlink:href="#ah"/><use transform="matrix(0.07407407407407408,0,0,0.07407407407407408,48.2962962962963,0)" xlink:href="#ai"/><use transform="matrix(0.07407407407407408,0,0,0.07407407407407408,63.111111111111114,0)" xlink:href="#ag"/></g><path fill="#b2b2b2" d="M88-194c31-1 46 15 58 34l-1-101h50l1 261h-48c-2-10 0-23-3-31C134-8 116 4 84 4 32 4 16-41 15-95c0-56 19-97 73-99zm17 164c33 0 40-30 41-66 1-37-9-64-41-64s-38 30-39 65c0 43 13 65 39 65" id="aj"/><path fill="#b2b2b2" d="M185-48c-13 30-37 53-82 52C43 2 14-33 14-96s30-98 90-98c62 0 83 45 84 108H66c0 31 8 55 39 56 18 0 30-7 34-22zm-45-69c5-46-57-63-70-21-2 6-4 13-4 21h74" id="ak"/><g id="e"><use transform="matrix(0.07407407407407408,0,0,0.07407407407407408,0,0)" xlink:href="#aj"/><use transform="matrix(0.07407407407407408,0,0,0.07407407407407408,16.222222222222225,0)" xlink:href="#ak"/></g><path fill="#b2b2b2" d="M135-194c53 0 70 44 70 98 0 56-19 98-73 100-31 1-45-17-59-34 3 33 2 69 2 105H25l-1-265h48c2 10 0 23 3 31 11-24 29-35 60-35zM114-30c33 0 39-31 40-66 0-38-9-64-40-64-56 0-55 130 0 130" id="al"/><path fill="#b2b2b2" d="M135-150c-39-12-60 13-60 57V0H25l-1-190h47c2 13-1 29 3 40 6-28 27-53 61-41v41" id="am"/><path fill="#b2b2b2" d="M110-194c64 0 96 36 96 99 0 64-35 99-97 99-61 0-95-36-95-99 0-62 34-99 96-99zm-1 164c35 0 45-28 45-65 0-40-10-65-43-65-34 0-45 26-45 65 0 36 10 65 43 65" id="an"/><path fill="#b2b2b2" d="M190-63c-7 42-38 67-86 67-59 0-84-38-90-98-12-110 154-137 174-36l-49 2c-2-19-15-32-35-32-30 0-35 28-38 64-6 74 65 87 74 30" id="ao"/><path fill="#b2b2b2" d="M35-132v-50h50v50H35zM35 0v-49h50V0H35" id="ap"/><g id="f"><use transform="matrix(0.07407407407407408,0,0,0.07407407407407408,0,0)" xlink:href="#al"/><use transform="matrix(0.07407407407407408,0,0,0.07407407407407408,16.222222222222225,0)" xlink:href="#am"/><use transform="matrix(0.07407407407407408,0,0,0.07407407407407408,26.592592592592595,0)" xlink:href="#an"/><use transform="matrix(0.07407407407407408,0,0,0.07407407407407408,42.814814814814824,0)" xlink:href="#ao"/><use transform="matrix(0.07407407407407408,0,0,0.07407407407407408,57.62962962962964,0)" xlink:href="#ak"/><use transform="matrix(0.07407407407407408,0,0,0.07407407407407408,72.44444444444446,0)" xlink:href="#ag"/><use transform="matrix(0.07407407407407408,0,0,0.07407407407407408,87.25925925925927,0)" xlink:href="#an"/><use transform="matrix(0.07407407407407408,0,0,0.07407407407407408,103.4814814814815,0)" xlink:href="#ag"/><use transform="matrix(0.07407407407407408,0,0,0.07407407407407408,118.29629629629632,0)" xlink:href="#ap"/></g><path fill="#b2b2b2" d="M24-248c120-7 223 5 221 122C244-46 201 0 124 0H24v-248zM76-40c74 7 117-18 117-86 0-67-45-88-117-82v168" id="aq"/><path fill="#b2b2b2" d="M195-6C206 82 75 100 31 46c-4-6-6-13-8-21l49-6c3 16 16 24 34 25 40 0 42-37 40-79-11 22-30 35-61 35-53 0-70-43-70-97 0-56 18-96 73-97 30 0 46 14 59 34l2-30h47zm-90-29c32 0 41-27 41-63 0-35-9-62-40-62-32 0-39 29-40 63 0 36 9 62 39 62" id="ar"/><path fill="#b2b2b2" d="M220-157c-53 9-28 100-34 157h-49v-107c1-27-5-49-29-50C55-147 81-57 75 0H25l-1-190h47c2 12-1 28 3 38 10-53 101-56 108 0 13-22 24-43 59-42 82 1 51 116 57 194h-49v-107c-1-25-5-48-29-50" id="as"/><g id="g"><use transform="matrix(0.07407407407407408,0,0,0.07407407407407408,0,0)" xlink:href="#aq"/><use transform="matrix(0.07407407407407408,0,0,0.07407407407407408,19.185185185185187,0)" xlink:href="#af"/><use transform="matrix(0.07407407407407408,0,0,0.07407407407407408,26.592592592592595,0)" xlink:href="#ai"/><use transform="matrix(0.07407407407407408,0,0,0.07407407407407408,41.40740740740741,0)" xlink:href="#ar"/><use transform="matrix(0.07407407407407408,0,0,0.07407407407407408,57.62962962962964,0)" xlink:href="#am"/><use transform="matrix(0.07407407407407408,0,0,0.07407407407407408,68,0)" xlink:href="#ai"/><use transform="matrix(0.07407407407407408,0,0,0.07407407407407408,82.81481481481481,0)" xlink:href="#as"/><use transform="matrix(0.07407407407407408,0,0,0.07407407407407408,106.51851851851852,0)" xlink:href="#ai"/></g><g id="h"><use transform="matrix(0.07407407407407408,0,0,0.07407407407407408,0,0)" xlink:href="#aj"/><use transform="matrix(0.07407407407407408,0,0,0.07407407407407408,16.222222222222225,0)" xlink:href="#ak"/></g><path fill="#b2b2b2" d="M199 0l-22-63H83L61 0H9l90-248h61L250 0h-51zm-33-102l-36-108c-10 38-24 72-36 108h72" id="at"/><path fill="#b2b2b2" d="M128 0H69L1-190h53L99-40l48-150h52" id="au"/><g id="i"><use transform="matrix(0.07407407407407408,0,0,0.07407407407407408,0,0)" xlink:href="#at"/><use transform="matrix(0.07407407407407408,0,0,0.07407407407407408,19.185185185185187,0)" xlink:href="#ao"/><use transform="matrix(0.07407407407407408,0,0,0.07407407407407408,34,0)" xlink:href="#ah"/><use transform="matrix(0.07407407407407408,0,0,0.07407407407407408,42.814814814814824,0)" xlink:href="#af"/><use transform="matrix(0.07407407407407408,0,0,0.07407407407407408,50.22222222222223,0)" xlink:href="#au"/><use transform="matrix(0.07407407407407408,0,0,0.07407407407407408,65.03703703703704,0)" xlink:href="#af"/><use transform="matrix(0.07407407407407408,0,0,0.07407407407407408,72.44444444444444,0)" xlink:href="#aj"/><use transform="matrix(0.07407407407407408,0,0,0.07407407407407408,88.66666666666667,0)" xlink:href="#ai"/><use transform="matrix(0.07407407407407408,0,0,0.07407407407407408,103.4814814814815,0)" xlink:href="#aj"/></g><path fill="#00184e" d="M33 0v-248h34V0H33" id="av"/><path fill="#00184e" d="M117-194c89-4 53 116 60 194h-32v-121c0-31-8-49-39-48C34-167 62-67 57 0H25l-1-190h30c1 10-1 24 2 32 11-22 29-35 61-36" id="aw"/><path fill="#00184e" d="M177-190C167-65 218 103 67 71c-23-6-38-20-44-43l32-5c15 47 100 32 89-28v-30C133-14 115 1 83 1 29 1 15-40 15-95c0-56 16-97 71-98 29-1 48 16 59 35 1-10 0-23 2-32h30zM94-22c36 0 50-32 50-73 0-42-14-75-50-75-39 0-46 34-46 75s6 73 46 73" id="ax"/><path fill="#00184e" d="M114-163C36-179 61-72 57 0H25l-1-190h30c1 12-1 29 2 39 6-27 23-49 58-41v29" id="ay"/><path fill="#00184e" d="M100-194c63 0 86 42 84 106H49c0 40 14 67 53 68 26 1 43-12 49-29l28 8c-11 28-37 45-77 45C44 4 14-33 15-96c1-61 26-98 85-98zm52 81c6-60-76-77-97-28-3 7-6 17-6 28h103" id="az"/><path fill="#00184e" d="M135-143c-3-34-86-38-87 0 15 53 115 12 119 90S17 21 10-45l28-5c4 36 97 45 98 0-10-56-113-15-118-90-4-57 82-63 122-42 12 7 21 19 24 35" id="aA"/><path fill="#00184e" d="M141-36C126-15 110 5 73 4 37 3 15-17 15-53c-1-64 63-63 125-63 3-35-9-54-41-54-24 1-41 7-42 31l-33-3c5-37 33-52 76-52 45 0 72 20 72 64v82c-1 20 7 32 28 27v20c-31 9-61-2-59-35zM48-53c0 20 12 33 32 33 41-3 63-29 60-74-43 2-92-5-92 41" id="aB"/><g id="j"><use transform="matrix(0.050063688677604884,0,0,0.050063688677604884,0,0)" xlink:href="#av"/><use transform="matrix(0.050063688677604884,0,0,0.050063688677604884,5.0063688677604885,0)" xlink:href="#aw"/><use transform="matrix(0.050063688677604884,0,0,0.050063688677604884,15.019106603281465,0)" xlink:href="#ax"/><use transform="matrix(0.050063688677604884,0,0,0.050063688677604884,25.031844338802443,0)" xlink:href="#ay"/><use transform="matrix(0.050063688677604884,0,0,0.050063688677604884,30.989423291437422,0)" xlink:href="#az"/><use transform="matrix(0.050063688677604884,0,0,0.050063688677604884,41.002161026958404,0)" xlink:href="#aA"/><use transform="matrix(0.050063688677604884,0,0,0.050063688677604884,50.01362498892728,0)" xlink:href="#aB"/><use transform="matrix(0.050063688677604884,0,0,0.050063688677604884,60.02636272444827,0)" xlink:href="#ay"/></g><path fill="#00184e" d="M24 0v-261h32V0H24" id="aC"/><g id="k"><use transform="matrix(0.050063688677604884,0,0,0.050063688677604884,0,0)" xlink:href="#aB"/><use transform="matrix(0.050063688677604884,0,0,0.050063688677604884,10.012737735520977,0)" xlink:href="#aC"/></g><path fill="#00184e" d="M24-231v-30h32v30H24zM24 0v-190h32V0H24" id="aD"/><path fill="#00184e" d="M59-47c-2 24 18 29 38 22v24C64 9 27 4 27-40v-127H5v-23h24l9-43h21v43h35v23H59v120" id="aE"/><path fill="#00184e" d="M210-169c-67 3-38 105-44 169h-31v-121c0-29-5-50-35-48C34-165 62-65 56 0H25l-1-190h30c1 10-1 24 2 32 10-44 99-50 107 0 11-21 27-35 58-36 85-2 47 119 55 194h-31v-121c0-29-5-49-35-48" id="aF"/><g id="l"><use transform="matrix(0.050063688677604884,0,0,0.050063688677604884,0,0)" xlink:href="#aA"/><use transform="matrix(0.050063688677604884,0,0,0.050063688677604884,9.011463961968879,0)" xlink:href="#aD"/><use transform="matrix(0.050063688677604884,0,0,0.050063688677604884,12.966495367499665,0)" xlink:href="#aA"/><use transform="matrix(0.050063688677604884,0,0,0.050063688677604884,21.977959329468543,0)" xlink:href="#aE"/><use transform="matrix(0.050063688677604884,0,0,0.050063688677604884,26.984328197229033,0)" xlink:href="#az"/><use transform="matrix(0.050063688677604884,0,0,0.050063688677604884,36.99706593275001,0)" xlink:href="#aF"/><use transform="matrix(0.050063688677604884,0,0,0.050063688677604884,51.96610884735387,0)" xlink:href="#aB"/></g><path fill="#00184e" d="M96-169c-40 0-48 33-48 73s9 75 48 75c24 0 41-14 43-38l32 2c-6 37-31 61-74 61-59 0-76-41-82-99-10-93 101-131 147-64 4 7 5 14 7 22l-32 3c-4-21-16-35-41-35" id="aG"/><g id="m"><use transform="matrix(0.050063688677604884,0,0,0.050063688677604884,0,0)" xlink:href="#av"/><use transform="matrix(0.050063688677604884,0,0,0.050063688677604884,5.0063688677604885,0)" xlink:href="#aw"/><use transform="matrix(0.050063688677604884,0,0,0.050063688677604884,15.019106603281465,0)" xlink:href="#aD"/><use transform="matrix(0.050063688677604884,0,0,0.050063688677604884,18.97413800881225,0)" xlink:href="#aG"/><use transform="matrix(0.050063688677604884,0,0,0.050063688677604884,27.98560197078113,0)" xlink:href="#aD"/><use transform="matrix(0.050063688677604884,0,0,0.050063688677604884,31.940633376311915,0)" xlink:href="#aB"/><use transform="matrix(0.050063688677604884,0,0,0.050063688677604884,41.953371111832894,0)" xlink:href="#ay"/></g><path fill="#00184e" d="M100-194c62-1 85 37 85 99 1 63-27 99-86 99S16-35 15-95c0-66 28-99 85-99zM99-20c44 1 53-31 53-75 0-43-8-75-51-75s-53 32-53 75 10 74 51 75zM76-211c8-23 27-35 38-54h36v5l-58 49H76" id="aH"/><g id="n"><use transform="matrix(0.050063688677604884,0,0,0.050063688677604884,0,0)" xlink:href="#aA"/><use transform="matrix(0.050063688677604884,0,0,0.050063688677604884,9.011463961968879,0)" xlink:href="#az"/><use transform="matrix(0.050063688677604884,0,0,0.050063688677604884,19.024201697489858,0)" xlink:href="#aA"/><use transform="matrix(0.050063688677604884,0,0,0.050063688677604884,28.035665659458736,0)" xlink:href="#aD"/><use transform="matrix(0.050063688677604884,0,0,0.050063688677604884,31.990697064989522,0)" xlink:href="#aH"/><use transform="matrix(0.050063688677604884,0,0,0.050063688677604884,42.0034348005105,0)" xlink:href="#aw"/></g><path fill="#00184e" d="M212-179c-10-28-35-45-73-45-59 0-87 40-87 99 0 60 29 101 89 101 43 0 62-24 78-52l27 14C228-24 195 4 139 4 59 4 22-46 18-125c-6-104 99-153 187-111 19 9 31 26 39 46" id="aI"/><g id="o"><use transform="matrix(0.050063688677604884,0,0,0.050063688677604884,0,0)" xlink:href="#aI"/><use transform="matrix(0.050063688677604884,0,0,0.050063688677604884,12.966495367499665,0)" xlink:href="#ay"/><use transform="matrix(0.050063688677604884,0,0,0.050063688677604884,18.924074320134647,0)" xlink:href="#az"/><use transform="matrix(0.050063688677604884,0,0,0.050063688677604884,28.936812055655622,0)" xlink:href="#aB"/><use transform="matrix(0.050063688677604884,0,0,0.050063688677604884,38.9495497911766,0)" xlink:href="#ay"/></g><path fill="#00184e" d="M84 4C-5 8 30-112 23-190h32v120c0 31 7 50 39 49 72-2 45-101 50-169h31l1 190h-30c-1-10 1-25-2-33-11 22-28 36-60 37" id="aJ"/><path fill="#00184e" d="M100-194c62-1 85 37 85 99 1 63-27 99-86 99S16-35 15-95c0-66 28-99 85-99zM99-20c44 1 53-31 53-75 0-43-8-75-51-75s-53 32-53 75 10 74 51 75" id="aK"/><g id="p"><use transform="matrix(0.050063688677604884,0,0,0.050063688677604884,0,0)" xlink:href="#aJ"/><use transform="matrix(0.050063688677604884,0,0,0.050063688677604884,10.012737735520977,0)" xlink:href="#aA"/><use transform="matrix(0.050063688677604884,0,0,0.050063688677604884,19.024201697489858,0)" xlink:href="#aJ"/><use transform="matrix(0.050063688677604884,0,0,0.050063688677604884,29.03693943301084,0)" xlink:href="#aB"/><use transform="matrix(0.050063688677604884,0,0,0.050063688677604884,39.049677168531815,0)" xlink:href="#ay"/><use transform="matrix(0.050063688677604884,0,0,0.050063688677604884,45.0072561211668,0)" xlink:href="#aD"/><use transform="matrix(0.050063688677604884,0,0,0.050063688677604884,48.96228752669758,0)" xlink:href="#aK"/></g><path fill="#00184e" d="M140-251c81 0 123 46 123 126C263-46 219 4 140 4 59 4 17-45 17-125s42-126 123-126zm0 227c63 0 89-41 89-101s-29-99-89-99c-61 0-89 39-89 99S79-25 140-24" id="aL"/><g id="q"><use transform="matrix(0.050063688677604884,0,0,0.050063688677604884,0,0)" xlink:href="#aL"/><use transform="matrix(0.050063688677604884,0,0,0.050063688677604884,14.017832829729368,0)" xlink:href="#aE"/><use transform="matrix(0.050063688677604884,0,0,0.050063688677604884,19.024201697489858,0)" xlink:href="#aK"/><use transform="matrix(0.050063688677604884,0,0,0.050063688677604884,29.03693943301084,0)" xlink:href="#ay"/><use transform="matrix(0.050063688677604884,0,0,0.050063688677604884,34.99451838564582,0)" xlink:href="#ax"/><use transform="matrix(0.050063688677604884,0,0,0.050063688677604884,45.0072561211668,0)" xlink:href="#aB"/><use transform="matrix(0.050063688677604884,0,0,0.050063688677604884,55.019993856687776,0)" xlink:href="#ay"/></g><path fill="#00184e" d="M115-194c55 1 70 41 70 98S169 2 115 4C84 4 66-9 55-30l1 105H24l-1-265h31l2 30c10-21 28-34 59-34zm-8 174c40 0 45-34 45-75s-6-73-45-74c-42 0-51 32-51 76 0 43 10 73 51 73" id="aM"/><g id="r"><use transform="matrix(0.050063688677604884,0,0,0.050063688677604884,0,0)" xlink:href="#aM"/><use transform="matrix(0.050063688677604884,0,0,0.050063688677604884,10.012737735520977,0)" xlink:href="#az"/><use transform="matrix(0.050063688677604884,0,0,0.050063688677604884,20.025475471041954,0)" xlink:href="#ay"/><use transform="matrix(0.050063688677604884,0,0,0.050063688677604884,25.983054423676936,0)" xlink:href="#aF"/><use transform="matrix(0.050063688677604884,0,0,0.050063688677604884,40.952097338280794,0)" xlink:href="#aD"/><use transform="matrix(0.050063688677604884,0,0,0.050063688677604884,44.90712874381158,0)" xlink:href="#aA"/><use transform="matrix(0.050063688677604884,0,0,0.050063688677604884,53.91859270578046,0)" xlink:href="#aK"/><use transform="matrix(0.050063688677604884,0,0,0.050063688677604884,63.931330441301434,0)" xlink:href="#aA"/></g><g id="s"><use transform="matrix(0.050063688677604884,0,0,0.050063688677604884,0,0)" xlink:href="#av"/><use transform="matrix(0.050063688677604884,0,0,0.050063688677604884,5.0063688677604885,0)" xlink:href="#aw"/><use transform="matrix(0.050063688677604884,0,0,0.050063688677604884,15.019106603281465,0)" xlink:href="#aD"/><use transform="matrix(0.050063688677604884,0,0,0.050063688677604884,18.97413800881225,0)" xlink:href="#aG"/><use transform="matrix(0.050063688677604884,0,0,0.050063688677604884,27.98560197078113,0)" xlink:href="#aD"/><use transform="matrix(0.050063688677604884,0,0,0.050063688677604884,31.940633376311915,0)" xlink:href="#aB"/><use transform="matrix(0.050063688677604884,0,0,0.050063688677604884,41.953371111832894,0)" xlink:href="#ay"/></g><g id="t"><use transform="matrix(0.050063688677604884,0,0,0.050063688677604884,0,0)" xlink:href="#aA"/><use transform="matrix(0.050063688677604884,0,0,0.050063688677604884,9.011463961968879,0)" xlink:href="#az"/><use transform="matrix(0.050063688677604884,0,0,0.050063688677604884,19.024201697489858,0)" xlink:href="#aA"/><use transform="matrix(0.050063688677604884,0,0,0.050063688677604884,28.035665659458736,0)" xlink:href="#aD"/><use transform="matrix(0.050063688677604884,0,0,0.050063688677604884,31.990697064989522,0)" xlink:href="#aH"/><use transform="matrix(0.050063688677604884,0,0,0.050063688677604884,42.0034348005105,0)" xlink:href="#aw"/></g><path fill="#00184e" d="M30 0v-248h187v28H63v79h144v27H63v87h162V0H30" id="aN"/><path fill="#00184e" d="M141 0L90-78 38 0H4l68-98-65-92h35l48 74 47-74h35l-64 92 68 98h-35" id="aO"/><g id="u"><use transform="matrix(0.050063688677604884,0,0,0.050063688677604884,0,0)" xlink:href="#aN"/><use transform="matrix(0.050063688677604884,0,0,0.050063688677604884,12.015285282625172,0)" xlink:href="#aO"/><use transform="matrix(0.050063688677604884,0,0,0.050063688677604884,21.02674924459405,0)" xlink:href="#aM"/><use transform="matrix(0.050063688677604884,0,0,0.050063688677604884,31.03948698011503,0)" xlink:href="#aK"/><use transform="matrix(0.050063688677604884,0,0,0.050063688677604884,41.05222471563601,0)" xlink:href="#ay"/><use transform="matrix(0.050063688677604884,0,0,0.050063688677604884,47.00980366827099,0)" xlink:href="#aE"/><use transform="matrix(0.050063688677604884,0,0,0.050063688677604884,52.016172536031476,0)" xlink:href="#aB"/><use transform="matrix(0.050063688677604884,0,0,0.050063688677604884,62.02891027155245,0)" xlink:href="#ay"/></g><g id="v"><use transform="matrix(0.050063688677604884,0,0,0.050063688677604884,0,0)" xlink:href="#ay"/><use transform="matrix(0.050063688677604884,0,0,0.050063688677604884,5.957578952634981,0)" xlink:href="#az"/><use transform="matrix(0.050063688677604884,0,0,0.050063688677604884,15.970316688155958,0)" xlink:href="#aM"/><use transform="matrix(0.050063688677604884,0,0,0.050063688677604884,25.983054423676936,0)" xlink:href="#aK"/><use transform="matrix(0.050063688677604884,0,0,0.050063688677604884,35.99579215919791,0)" xlink:href="#ay"/><use transform="matrix(0.050063688677604884,0,0,0.050063688677604884,41.953371111832894,0)" xlink:href="#aE"/><use transform="matrix(0.050063688677604884,0,0,0.050063688677604884,46.95973997959338,0)" xlink:href="#az"/></g><path fill="#00184e" d="M240 0l2-218c-23 76-54 145-80 218h-23L58-218 59 0H30v-248h44l77 211c21-75 51-140 76-211h43V0h-30" id="aP"/><path fill="#00184e" d="M85-194c31 0 48 13 60 33l-1-100h32l1 261h-30c-2-10 0-23-3-31C134-8 116 4 85 4 32 4 16-35 15-94c0-66 23-100 70-100zm9 24c-40 0-46 34-46 75 0 40 6 74 45 74 42 0 51-32 51-76 0-42-9-74-50-73" id="aQ"/><path fill="#00184e" d="M101-234c-31-9-42 10-38 44h38v23H63V0H32v-167H5v-23h27c-7-52 17-82 69-68v24" id="aR"/><g id="w"><use transform="matrix(0.050063688677604884,0,0,0.050063688677604884,0,0)" xlink:href="#aP"/><use transform="matrix(0.050063688677604884,0,0,0.050063688677604884,14.969042914603861,0)" xlink:href="#aK"/><use transform="matrix(0.050063688677604884,0,0,0.050063688677604884,24.98178065012484,0)" xlink:href="#aQ"/><use transform="matrix(0.050063688677604884,0,0,0.050063688677604884,34.99451838564582,0)" xlink:href="#aD"/><use transform="matrix(0.050063688677604884,0,0,0.050063688677604884,38.94954979117661,0)" xlink:href="#aR"/><use transform="matrix(0.050063688677604884,0,0,0.050063688677604884,43.955918658937094,0)" xlink:href="#aD"/><use transform="matrix(0.050063688677604884,0,0,0.050063688677604884,47.91095006446788,0)" xlink:href="#aG"/><use transform="matrix(0.050063688677604884,0,0,0.050063688677604884,56.92241402643676,0)" xlink:href="#aB"/><use transform="matrix(0.050063688677604884,0,0,0.050063688677604884,66.93515176195774,0)" xlink:href="#ay"/></g><path fill="#00184e" d="M108 0H70L1-190h34L89-25l56-165h34" id="aS"/><g id="x"><use transform="matrix(0.050063688677604884,0,0,0.050063688677604884,0,0)" xlink:href="#ay"/><use transform="matrix(0.050063688677604884,0,0,0.050063688677604884,5.957578952634981,0)" xlink:href="#az"/><use transform="matrix(0.050063688677604884,0,0,0.050063688677604884,15.970316688155958,0)" xlink:href="#aA"/><use transform="matrix(0.050063688677604884,0,0,0.050063688677604884,24.981780650124836,0)" xlink:href="#az"/><use transform="matrix(0.050063688677604884,0,0,0.050063688677604884,34.99451838564581,0)" xlink:href="#ay"/><use transform="matrix(0.050063688677604884,0,0,0.050063688677604884,40.952097338280794,0)" xlink:href="#aS"/><use transform="matrix(0.050063688677604884,0,0,0.050063688677604884,49.96356130024967,0)" xlink:href="#aB"/></g><path fill="#00184e" d="M137 0h-34L2-248h35l83 218 83-218h36" id="aT"/><g id="y"><use transform="matrix(0.050063688677604884,0,0,0.050063688677604884,0,0)" xlink:href="#aT"/><use transform="matrix(0.050063688677604884,0,0,0.050063688677604884,11.014011509073073,0)" xlink:href="#az"/><use transform="matrix(0.050063688677604884,0,0,0.050063688677604884,21.02674924459405,0)" xlink:href="#ay"/></g><g id="z"><use transform="matrix(0.050063688677604884,0,0,0.050063688677604884,0,0)" xlink:href="#ay"/><use transform="matrix(0.050063688677604884,0,0,0.050063688677604884,5.957578952634981,0)" xlink:href="#az"/><use transform="matrix(0.050063688677604884,0,0,0.050063688677604884,15.970316688155958,0)" xlink:href="#aA"/><use transform="matrix(0.050063688677604884,0,0,0.050063688677604884,24.981780650124836,0)" xlink:href="#az"/><use transform="matrix(0.050063688677604884,0,0,0.050063688677604884,34.99451838564581,0)" xlink:href="#ay"/><use transform="matrix(0.050063688677604884,0,0,0.050063688677604884,40.952097338280794,0)" xlink:href="#aS"/><use transform="matrix(0.050063688677604884,0,0,0.050063688677604884,49.96356130024967,0)" xlink:href="#aB"/><use transform="matrix(0.050063688677604884,0,0,0.050063688677604884,59.97629903577065,0)" xlink:href="#aA"/></g><g id="A"><use transform="matrix(0.050063688677604884,0,0,0.050063688677604884,0,0)" xlink:href="#aI"/><use transform="matrix(0.050063688677604884,0,0,0.050063688677604884,12.966495367499665,0)" xlink:href="#az"/><use transform="matrix(0.050063688677604884,0,0,0.050063688677604884,22.97923310302064,0)" xlink:href="#ay"/><use transform="matrix(0.050063688677604884,0,0,0.050063688677604884,28.936812055655622,0)" xlink:href="#ay"/><use transform="matrix(0.050063688677604884,0,0,0.050063688677604884,34.894391008290604,0)" xlink:href="#aB"/><use transform="matrix(0.050063688677604884,0,0,0.050063688677604884,44.90712874381158,0)" xlink:href="#ay"/></g><path fill="#00184e" d="M143 4C61 4 22-44 18-125c-5-107 100-154 193-111 17 8 29 25 37 43l-32 9c-13-25-37-40-76-40-61 0-88 39-88 99 0 61 29 100 91 101 35 0 62-11 79-27v-45h-74v-28h105v86C228-13 192 4 143 4" id="aU"/><g id="B"><use transform="matrix(0.050063688677604884,0,0,0.050063688677604884,0,0)" xlink:href="#aU"/><use transform="matrix(0.050063688677604884,0,0,0.050063688677604884,14.017832829729368,0)" xlink:href="#az"/><use transform="matrix(0.050063688677604884,0,0,0.050063688677604884,24.030570565250343,0)" xlink:href="#aw"/><use transform="matrix(0.050063688677604884,0,0,0.050063688677604884,34.04330830077132,0)" xlink:href="#az"/><use transform="matrix(0.050063688677604884,0,0,0.050063688677604884,44.0560460362923,0)" xlink:href="#ay"/><use transform="matrix(0.050063688677604884,0,0,0.050063688677604884,50.01362498892728,0)" xlink:href="#aB"/><use transform="matrix(0.050063688677604884,0,0,0.050063688677604884,60.02636272444827,0)" xlink:href="#ay"/></g><g id="C"><use transform="matrix(0.050063688677604884,0,0,0.050063688677604884,0,0)" xlink:href="#ay"/><use transform="matrix(0.050063688677604884,0,0,0.050063688677604884,5.957578952634981,0)" xlink:href="#az"/><use transform="matrix(0.050063688677604884,0,0,0.050063688677604884,15.970316688155958,0)" xlink:href="#aM"/><use transform="matrix(0.050063688677604884,0,0,0.050063688677604884,25.983054423676936,0)" xlink:href="#aK"/><use transform="matrix(0.050063688677604884,0,0,0.050063688677604884,35.99579215919791,0)" xlink:href="#ay"/><use transform="matrix(0.050063688677604884,0,0,0.050063688677604884,41.953371111832894,0)" xlink:href="#aE"/><use transform="matrix(0.050063688677604884,0,0,0.050063688677604884,46.95973997959338,0)" xlink:href="#az"/></g><g id="D"><use transform="matrix(0.050063688677604884,0,0,0.050063688677604884,0,0)" xlink:href="#aN"/><use transform="matrix(0.050063688677604884,0,0,0.050063688677604884,12.015285282625172,0)" xlink:href="#aQ"/><use transform="matrix(0.050063688677604884,0,0,0.050063688677604884,22.02802301814615,0)" xlink:href="#aD"/><use transform="matrix(0.050063688677604884,0,0,0.050063688677604884,25.983054423676936,0)" xlink:href="#aE"/><use transform="matrix(0.050063688677604884,0,0,0.050063688677604884,30.989423291437422,0)" xlink:href="#aB"/><use transform="matrix(0.050063688677604884,0,0,0.050063688677604884,41.002161026958404,0)" xlink:href="#ay"/></g><path fill="#00184e" d="M141-36C126-15 110 5 73 4 37 3 15-17 15-53c-1-64 63-63 125-63 3-35-9-54-41-54-24 1-41 7-42 31l-33-3c5-37 33-52 76-52 45 0 72 20 72 64v82c-1 20 7 32 28 27v20c-31 9-61-2-59-35zM48-53c0 20 12 33 32 33 41-3 63-29 60-74-43 2-92-5-92 41zm25-158c8-23 27-35 38-54h36v5l-58 49H73" id="aV"/><g id="E"><use transform="matrix(0.050063688677604884,0,0,0.050063688677604884,0,0)" xlink:href="#aG"/><use transform="matrix(0.050063688677604884,0,0,0.050063688677604884,9.011463961968879,0)" xlink:href="#aB"/><use transform="matrix(0.050063688677604884,0,0,0.050063688677604884,19.024201697489858,0)" xlink:href="#aE"/><use transform="matrix(0.050063688677604884,0,0,0.050063688677604884,24.030570565250347,0)" xlink:href="#aV"/><use transform="matrix(0.050063688677604884,0,0,0.050063688677604884,34.04330830077132,0)" xlink:href="#aC"/><use transform="matrix(0.050063688677604884,0,0,0.050063688677604884,37.998339706302104,0)" xlink:href="#aK"/><use transform="matrix(0.050063688677604884,0,0,0.050063688677604884,48.01107744182308,0)" xlink:href="#ax"/><use transform="matrix(0.050063688677604884,0,0,0.050063688677604884,58.02381517734406,0)" xlink:href="#aK"/></g><path fill="#00184e" d="M9 0v-24l116-142H16v-24h144v24L44-24h123V0H9" id="aW"/><g id="F"><use transform="matrix(0.050063688677604884,0,0,0.050063688677604884,0,0)" xlink:href="#aT"/><use transform="matrix(0.050063688677604884,0,0,0.050063688677604884,11.664839461881938,0)" xlink:href="#aD"/><use transform="matrix(0.050063688677604884,0,0,0.050063688677604884,15.619870867412724,0)" xlink:href="#aA"/><use transform="matrix(0.050063688677604884,0,0,0.050063688677604884,24.6313348293816,0)" xlink:href="#aJ"/><use transform="matrix(0.050063688677604884,0,0,0.050063688677604884,34.64407256490258,0)" xlink:href="#aB"/><use transform="matrix(0.050063688677604884,0,0,0.050063688677604884,44.65681030042356,0)" xlink:href="#aC"/><use transform="matrix(0.050063688677604884,0,0,0.050063688677604884,48.61184170595435,0)" xlink:href="#aD"/><use transform="matrix(0.050063688677604884,0,0,0.050063688677604884,52.56687311148514,0)" xlink:href="#aW"/><use transform="matrix(0.050063688677604884,0,0,0.050063688677604884,61.578337073454016,0)" xlink:href="#aB"/><use transform="matrix(0.050063688677604884,0,0,0.050063688677604884,71.591074808975,0)" xlink:href="#ay"/></g><g id="G"><use transform="matrix(0.050063688677604884,0,0,0.050063688677604884,0,0)" xlink:href="#aI"/><use transform="matrix(0.050063688677604884,0,0,0.050063688677604884,12.966495367499665,0)" xlink:href="#ay"/><use transform="matrix(0.050063688677604884,0,0,0.050063688677604884,18.924074320134647,0)" xlink:href="#az"/><use transform="matrix(0.050063688677604884,0,0,0.050063688677604884,28.936812055655622,0)" xlink:href="#aB"/><use transform="matrix(0.050063688677604884,0,0,0.050063688677604884,38.9495497911766,0)" xlink:href="#ay"/></g><g id="H"><use transform="matrix(0.050063688677604884,0,0,0.050063688677604884,0,0)" xlink:href="#aJ"/><use transform="matrix(0.050063688677604884,0,0,0.050063688677604884,10.012737735520977,0)" xlink:href="#aA"/><use transform="matrix(0.050063688677604884,0,0,0.050063688677604884,19.024201697489858,0)" xlink:href="#aJ"/><use transform="matrix(0.050063688677604884,0,0,0.050063688677604884,29.03693943301084,0)" xlink:href="#aB"/><use transform="matrix(0.050063688677604884,0,0,0.050063688677604884,39.049677168531815,0)" xlink:href="#ay"/><use transform="matrix(0.050063688677604884,0,0,0.050063688677604884,45.0072561211668,0)" xlink:href="#aD"/><use transform="matrix(0.050063688677604884,0,0,0.050063688677604884,48.96228752669758,0)" xlink:href="#aK"/></g><g id="I"><use transform="matrix(0.050063688677604884,0,0,0.050063688677604884,0,0)" xlink:href="#aI"/><use transform="matrix(0.050063688677604884,0,0,0.050063688677604884,12.966495367499665,0)" xlink:href="#aK"/><use transform="matrix(0.050063688677604884,0,0,0.050063688677604884,22.97923310302064,0)" xlink:href="#aw"/><use transform="matrix(0.050063688677604884,0,0,0.050063688677604884,32.99197083854162,0)" xlink:href="#aA"/><use transform="matrix(0.050063688677604884,0,0,0.050063688677604884,42.0034348005105,0)" xlink:href="#aJ"/><use transform="matrix(0.050063688677604884,0,0,0.050063688677604884,52.016172536031476,0)" xlink:href="#aC"/><use transform="matrix(0.050063688677604884,0,0,0.050063688677604884,55.97120394156226,0)" xlink:href="#aE"/><use transform="matrix(0.050063688677604884,0,0,0.050063688677604884,60.97757280932275,0)" xlink:href="#aB"/><use transform="matrix(0.050063688677604884,0,0,0.050063688677604884,70.99031054484372,0)" xlink:href="#ay"/></g><path fill="#00184e" d="M115-194c53 0 69 39 70 98 0 66-23 100-70 100C84 3 66-7 56-30L54 0H23l1-261h32v101c10-23 28-34 59-34zm-8 174c40 0 45-34 45-75 0-40-5-75-45-74-42 0-51 32-51 76 0 43 10 73 51 73" id="aX"/><g id="J"><use transform="matrix(0.050063688677604884,0,0,0.050063688677604884,0,0)" xlink:href="#aQ"/><use transform="matrix(0.050063688677604884,0,0,0.050063688677604884,10.012737735520977,0)" xlink:href="#aD"/><use transform="matrix(0.050063688677604884,0,0,0.050063688677604884,13.967769141051763,0)" xlink:href="#aA"/><use transform="matrix(0.050063688677604884,0,0,0.050063688677604884,22.97923310302064,0)" xlink:href="#aM"/><use transform="matrix(0.050063688677604884,0,0,0.050063688677604884,32.99197083854162,0)" xlink:href="#aK"/><use transform="matrix(0.050063688677604884,0,0,0.050063688677604884,43.0047085740626,0)" xlink:href="#aw"/><use transform="matrix(0.050063688677604884,0,0,0.050063688677604884,53.01744630958357,0)" xlink:href="#aD"/><use transform="matrix(0.050063688677604884,0,0,0.050063688677604884,56.97247771511437,0)" xlink:href="#aX"/><use transform="matrix(0.050063688677604884,0,0,0.050063688677604884,66.98521545063534,0)" xlink:href="#aD"/><use transform="matrix(0.050063688677604884,0,0,0.050063688677604884,70.94024685616613,0)" xlink:href="#aC"/><use transform="matrix(0.050063688677604884,0,0,0.050063688677604884,74.89527826169692,0)" xlink:href="#aD"/><use transform="matrix(0.050063688677604884,0,0,0.050063688677604884,78.8503096672277,0)" xlink:href="#aQ"/><use transform="matrix(0.050063688677604884,0,0,0.050063688677604884,88.86304740274868,0)" xlink:href="#aB"/><use transform="matrix(0.050063688677604884,0,0,0.050063688677604884,98.87578513826965,0)" xlink:href="#aQ"/></g><g id="K"><use transform="matrix(0.050063688677604884,0,0,0.050063688677604884,0,0)" xlink:href="#aI"/><use transform="matrix(0.050063688677604884,0,0,0.050063688677604884,12.966495367499665,0)" xlink:href="#aB"/><use transform="matrix(0.050063688677604884,0,0,0.050063688677604884,22.97923310302064,0)" xlink:href="#aF"/><use transform="matrix(0.050063688677604884,0,0,0.050063688677604884,37.9482760176245,0)" xlink:href="#aX"/><use transform="matrix(0.050063688677604884,0,0,0.050063688677604884,47.96101375314548,0)" xlink:href="#aD"/><use transform="matrix(0.050063688677604884,0,0,0.050063688677604884,51.91604515867626,0)" xlink:href="#aB"/><use transform="matrix(0.050063688677604884,0,0,0.050063688677604884,61.928782894197255,0)" xlink:href="#ay"/></g><g id="L"><use transform="matrix(0.050063688677604884,0,0,0.050063688677604884,0,0)" xlink:href="#aD"/><use transform="matrix(0.050063688677604884,0,0,0.050063688677604884,3.955031405530786,0)" xlink:href="#aQ"/><use transform="matrix(0.050063688677604884,0,0,0.050063688677604884,13.967769141051763,0)" xlink:href="#aD"/><use transform="matrix(0.050063688677604884,0,0,0.050063688677604884,17.92280054658255,0)" xlink:href="#aK"/><use transform="matrix(0.050063688677604884,0,0,0.050063688677604884,27.93553828210353,0)" xlink:href="#aF"/><use transform="matrix(0.050063688677604884,0,0,0.050063688677604884,42.90458119670739,0)" xlink:href="#aB"/></g><g id="M"><use transform="matrix(0.050063688677604884,0,0,0.050063688677604884,0,0)" xlink:href="#aI"/><use transform="matrix(0.050063688677604884,0,0,0.050063688677604884,12.966495367499665,0)" xlink:href="#aK"/><use transform="matrix(0.050063688677604884,0,0,0.050063688677604884,22.97923310302064,0)" xlink:href="#aw"/><use transform="matrix(0.050063688677604884,0,0,0.050063688677604884,32.99197083854162,0)" xlink:href="#aR"/><use transform="matrix(0.050063688677604884,0,0,0.050063688677604884,37.998339706302104,0)" xlink:href="#aD"/><use transform="matrix(0.050063688677604884,0,0,0.050063688677604884,41.953371111832894,0)" xlink:href="#ay"/><use transform="matrix(0.050063688677604884,0,0,0.050063688677604884,47.910950064467876,0)" xlink:href="#aF"/><use transform="matrix(0.050063688677604884,0,0,0.050063688677604884,62.87999297907174,0)" xlink:href="#aB"/><use transform="matrix(0.050063688677604884,0,0,0.050063688677604884,72.89273071459272,0)" xlink:href="#ay"/></g><g id="N"><use transform="matrix(0.050063688677604884,0,0,0.050063688677604884,0,0)" xlink:href="#aT"/><use transform="matrix(0.050063688677604884,0,0,0.050063688677604884,11.014011509073073,0)" xlink:href="#az"/><use transform="matrix(0.050063688677604884,0,0,0.050063688677604884,21.02674924459405,0)" xlink:href="#ay"/></g><g id="O"><use transform="matrix(0.050063688677604884,0,0,0.050063688677604884,0,0)" xlink:href="#aU"/><use transform="matrix(0.050063688677604884,0,0,0.050063688677604884,14.017832829729368,0)" xlink:href="#az"/><use transform="matrix(0.050063688677604884,0,0,0.050063688677604884,24.030570565250343,0)" xlink:href="#aw"/><use transform="matrix(0.050063688677604884,0,0,0.050063688677604884,34.04330830077132,0)" xlink:href="#az"/><use transform="matrix(0.050063688677604884,0,0,0.050063688677604884,44.0560460362923,0)" xlink:href="#ay"/><use transform="matrix(0.050063688677604884,0,0,0.050063688677604884,50.01362498892728,0)" xlink:href="#aB"/><use transform="matrix(0.050063688677604884,0,0,0.050063688677604884,60.02636272444827,0)" xlink:href="#ay"/></g><g id="P"><use transform="matrix(0.050063688677604884,0,0,0.050063688677604884,0,0)" xlink:href="#ay"/><use transform="matrix(0.050063688677604884,0,0,0.050063688677604884,5.957578952634981,0)" xlink:href="#az"/><use transform="matrix(0.050063688677604884,0,0,0.050063688677604884,15.970316688155958,0)" xlink:href="#aA"/><use transform="matrix(0.050063688677604884,0,0,0.050063688677604884,24.981780650124836,0)" xlink:href="#az"/><use transform="matrix(0.050063688677604884,0,0,0.050063688677604884,34.99451838564581,0)" xlink:href="#ay"/><use transform="matrix(0.050063688677604884,0,0,0.050063688677604884,40.952097338280794,0)" xlink:href="#aS"/><use transform="matrix(0.050063688677604884,0,0,0.050063688677604884,49.96356130024967,0)" xlink:href="#aB"/></g><path fill="#00184e" d="M30-248c87 1 191-15 191 75 0 78-77 80-158 76V0H30v-248zm33 125c57 0 124 11 124-50 0-59-68-47-124-48v98" id="aY"/><g id="Q"><use transform="matrix(0.050063688677604884,0,0,0.050063688677604884,0,0)" xlink:href="#aY"/><use transform="matrix(0.050063688677604884,0,0,0.050063688677604884,12.015285282625172,0)" xlink:href="#aB"/><use transform="matrix(0.050063688677604884,0,0,0.050063688677604884,22.02802301814615,0)" xlink:href="#ax"/><use transform="matrix(0.050063688677604884,0,0,0.050063688677604884,32.04076075366713,0)" xlink:href="#aB"/><use transform="matrix(0.050063688677604884,0,0,0.050063688677604884,42.05349848918811,0)" xlink:href="#ay"/></g></defs></g></svg>